<!DOCTYPE svg PUBLIC "-//W3C//DTD SVG 1.1//EN" "http://www.w3.org/Graphics/SVG/1.1/DTD/svg11.dtd">
<!-- Uploaded to: SVG Repo, www.svgrepo.com, Transformed by: SVG Repo Mixer Tools -->
<svg width="64px" height="64px" viewBox="0 0 24 24" fill="none" xmlns="http://www.w3.org/2000/svg" transform="rotate(0)">
<g id="SVGRepo_bgCarrier" stroke-width="0"/>
<g id="SVGRepo_tracerCarrier" stroke-linecap="round" stroke-linejoin="round"/>
<g id="SVGRepo_iconCarrier"> <path d="M12 2C16.714 2 19.0711 2 20.5355 3.46447C22 4.92893 22 7.28595 22 12C22 16.714 22 19.0711 20.5355 20.5355C19.0711 22 16.714 22 12 22C7.28595 22 4.92893 22 3.46447 20.5355C2 19.0711 2 16.714 2 12C2 7.28595 2 4.92893 3.46447 3.46447C4.43821 2.49073 5.80655 2.16444 8 2.0551" stroke="#1F7A8C" stroke-width="1.5" stroke-linecap="round"/> <ellipse cx="15" cy="10.5" rx="1" ry="1.5" fill="#1F7A8C"/> <ellipse cx="9" cy="10.5" rx="1" ry="1.5" fill="#1F7A8C"/> <path d="M16.5 21.4996L17 14.9996L13.857 13.7424C12.6649 13.2656 11.3351 13.2656 10.143 13.7424L7 14.9996L7.5 21.4996" stroke="#1F7A8C" stroke-width="1.5" stroke-linecap="round"/> <path d="M7 15L2.5 13" stroke="#1F7A8C" stroke-width="1.5" stroke-linecap="round"/> <path d="M7 19L3.5 20.5" stroke="#1F7A8C" stroke-width="1.5" stroke-linecap="round"/> <path d="M17 15L21.5 13" stroke="#1F7A8C" stroke-width="1.5" stroke-linecap="round"/> <path d="M17 19L20.5 20.5" stroke="#1F7A8C" stroke-width="1.5" stroke-linecap="round"/> </g>
</svg>